<svg width="70" height="64" viewBox="0 0 70 64" fill="none" xmlns="http://www.w3.org/2000/svg">
<circle cx="3.42979" cy="3.81578" r="3.38487" fill="#81AF00"/>
<circle cx="3.42979" cy="26.3815" r="3.38487" fill="#81AF00"/>
<circle cx="3.42979" cy="48.9474" r="3.38487" fill="#81AF00"/>
<circle cx="3.42979" cy="15.0987" r="3.38487" fill="#81AF00"/>
<circle cx="3.42979" cy="37.6644" r="3.38487" fill="#81AF00"/>
<circle cx="3.42979" cy="60.2303" r="3.38487" fill="#81AF00"/>
<circle cx="21.4825" cy="3.81578" r="3.38487" fill="#81AF00"/>
<circle cx="21.4825" cy="26.3815" r="3.38487" fill="#81AF00"/>
<circle cx="21.4825" cy="48.9474" r="3.38487" fill="#81AF00"/>
<circle cx="21.4825" cy="15.0987" r="3.38487" fill="#81AF00"/>
<circle cx="21.4825" cy="37.6644" r="3.38487" fill="#81AF00"/>
<circle cx="21.4825" cy="60.2303" r="3.38487" fill="#81AF00"/>
<circle cx="39.5353" cy="3.81578" r="3.38487" fill="#81AF00"/>
<circle cx="39.5353" cy="26.3815" r="3.38487" fill="#81AF00"/>
<circle cx="39.5353" cy="48.9474" r="3.38487" fill="#81AF00"/>
<circle cx="39.5353" cy="15.0987" r="3.38487" fill="#81AF00"/>
<circle cx="39.5353" cy="37.6644" r="3.38487" fill="#81AF00"/>
<circle cx="39.5353" cy="60.2303" r="3.38487" fill="#81AF00"/>
<circle cx="57.586" cy="3.81578" r="3.38487" fill="#81AF00"/>
<circle cx="57.586" cy="26.3815" r="3.38487" fill="#81AF00"/>
<circle cx="57.586" cy="48.9474" r="3.38487" fill="#81AF00"/>
<circle cx="57.586" cy="15.0987" r="3.38487" fill="#81AF00"/>
<circle cx="57.586" cy="37.6644" r="3.38487" fill="#81AF00"/>
<circle cx="57.586" cy="60.2303" r="3.38487" fill="#81AF00"/>
<circle cx="12.4569" cy="3.81578" r="3.38487" fill="#81AF00"/>
<circle cx="12.4569" cy="26.3815" r="3.38487" fill="#81AF00"/>
<circle cx="12.4569" cy="48.9474" r="3.38487" fill="#81AF00"/>
<circle cx="12.4569" cy="15.0987" r="3.38487" fill="#81AF00"/>
<circle cx="12.4569" cy="37.6644" r="3.38487" fill="#81AF00"/>
<circle cx="12.4569" cy="60.2303" r="3.38487" fill="#81AF00"/>
<circle cx="30.5099" cy="3.81578" r="3.38487" fill="#81AF00"/>
<circle cx="30.5099" cy="26.3815" r="3.38487" fill="#81AF00"/>
<circle cx="30.5099" cy="48.9474" r="3.38487" fill="#81AF00"/>
<circle cx="30.5099" cy="15.0987" r="3.38487" fill="#81AF00"/>
<circle cx="30.5099" cy="37.6644" r="3.38487" fill="#81AF00"/>
<circle cx="30.5099" cy="60.2303" r="3.38487" fill="#81AF00"/>
<circle cx="48.5606" cy="3.81578" r="3.38487" fill="#81AF00"/>
<circle cx="48.5606" cy="26.3815" r="3.38487" fill="#81AF00"/>
<circle cx="48.5606" cy="48.9474" r="3.38487" fill="#81AF00"/>
<circle cx="48.5606" cy="15.0987" r="3.38487" fill="#81AF00"/>
<circle cx="48.5606" cy="37.6644" r="3.38487" fill="#81AF00"/>
<circle cx="48.5606" cy="60.2303" r="3.38487" fill="#81AF00"/>
<circle cx="66.6134" cy="3.81578" r="3.38487" fill="#81AF00"/>
<circle cx="66.6134" cy="26.3815" r="3.38487" fill="#81AF00"/>
<circle cx="66.6134" cy="48.9474" r="3.38487" fill="#81AF00"/>
<circle cx="66.6134" cy="15.0987" r="3.38487" fill="#81AF00"/>
<circle cx="66.6134" cy="37.6644" r="3.38487" fill="#81AF00"/>
<circle cx="66.6134" cy="60.2303" r="3.38487" fill="#81AF00"/>
</svg>
