<svg width="70" height="64" viewBox="0 0 70 64" fill="none" xmlns="http://www.w3.org/2000/svg">
<circle cx="3.38487" cy="3.38487" r="3.38487" fill="#DFE667"/>
<circle cx="3.38487" cy="25.9505" r="3.38487" fill="#DFE667"/>
<circle cx="3.38487" cy="48.5165" r="3.38487" fill="#DFE667"/>
<circle cx="3.38487" cy="14.6678" r="3.38487" fill="#DFE667"/>
<circle cx="3.38487" cy="37.2335" r="3.38487" fill="#DFE667"/>
<circle cx="3.38487" cy="59.7994" r="3.38487" fill="#DFE667"/>
<circle cx="21.4376" cy="3.38487" r="3.38487" fill="#DFE667"/>
<circle cx="21.4376" cy="25.9505" r="3.38487" fill="#DFE667"/>
<circle cx="21.4376" cy="48.5165" r="3.38487" fill="#DFE667"/>
<circle cx="21.4376" cy="14.6678" r="3.38487" fill="#DFE667"/>
<circle cx="21.4376" cy="37.2335" r="3.38487" fill="#DFE667"/>
<circle cx="21.4376" cy="59.7994" r="3.38487" fill="#DFE667"/>
<circle cx="39.4903" cy="3.38487" r="3.38487" fill="#DFE667"/>
<circle cx="39.4903" cy="25.9505" r="3.38487" fill="#DFE667"/>
<circle cx="39.4903" cy="48.5165" r="3.38487" fill="#DFE667"/>
<circle cx="39.4903" cy="14.6678" r="3.38487" fill="#DFE667"/>
<circle cx="39.4903" cy="37.2335" r="3.38487" fill="#DFE667"/>
<circle cx="39.4903" cy="59.7994" r="3.38487" fill="#DFE667"/>
<circle cx="57.5411" cy="3.38487" r="3.38487" fill="#DFE667"/>
<circle cx="57.5411" cy="25.9505" r="3.38487" fill="#DFE667"/>
<circle cx="57.5411" cy="48.5165" r="3.38487" fill="#DFE667"/>
<circle cx="57.5411" cy="14.6678" r="3.38487" fill="#DFE667"/>
<circle cx="57.5411" cy="37.2335" r="3.38487" fill="#DFE667"/>
<circle cx="57.5411" cy="59.7994" r="3.38487" fill="#DFE667"/>
<circle cx="12.412" cy="3.38487" r="3.38487" fill="#DFE667"/>
<circle cx="12.412" cy="25.9505" r="3.38487" fill="#DFE667"/>
<circle cx="12.412" cy="48.5165" r="3.38487" fill="#DFE667"/>
<circle cx="12.412" cy="14.6678" r="3.38487" fill="#DFE667"/>
<circle cx="12.412" cy="37.2335" r="3.38487" fill="#DFE667"/>
<circle cx="12.412" cy="59.7994" r="3.38487" fill="#DFE667"/>
<circle cx="30.4649" cy="3.38487" r="3.38487" fill="#DFE667"/>
<circle cx="30.4649" cy="25.9505" r="3.38487" fill="#DFE667"/>
<circle cx="30.4649" cy="48.5165" r="3.38487" fill="#DFE667"/>
<circle cx="30.4649" cy="14.6678" r="3.38487" fill="#DFE667"/>
<circle cx="30.4649" cy="37.2335" r="3.38487" fill="#DFE667"/>
<circle cx="30.4649" cy="59.7994" r="3.38487" fill="#DFE667"/>
<circle cx="48.5157" cy="3.38487" r="3.38487" fill="#DFE667"/>
<circle cx="48.5157" cy="25.9505" r="3.38487" fill="#DFE667"/>
<circle cx="48.5157" cy="48.5165" r="3.38487" fill="#DFE667"/>
<circle cx="48.5157" cy="14.6678" r="3.38487" fill="#DFE667"/>
<circle cx="48.5157" cy="37.2335" r="3.38487" fill="#DFE667"/>
<circle cx="48.5157" cy="59.7994" r="3.38487" fill="#DFE667"/>
<circle cx="66.5685" cy="3.38487" r="3.38487" fill="#DFE667"/>
<circle cx="66.5685" cy="25.9505" r="3.38487" fill="#DFE667"/>
<circle cx="66.5685" cy="48.5165" r="3.38487" fill="#DFE667"/>
<circle cx="66.5685" cy="14.6678" r="3.38487" fill="#DFE667"/>
<circle cx="66.5685" cy="37.2335" r="3.38487" fill="#DFE667"/>
<circle cx="66.5685" cy="59.7994" r="3.38487" fill="#DFE667"/>
</svg>
