<svg width="375" height="37" viewBox="0 0 375 37" fill="none" xmlns="http://www.w3.org/2000/svg">
<rect width="782" height="37" fill="#1D2700"/>
<path d="M-49.256 23.064C-50.828 23.904 -52.586 24.324 -54.53 24.324C-55.514 24.324 -56.42 24.168 -57.248 23.856C-58.064 23.532 -58.772 23.082 -59.372 22.506C-59.96 21.918 -60.422 21.216 -60.758 20.4C-61.094 19.584 -61.262 18.678 -61.262 17.682C-61.262 16.662 -61.094 15.738 -60.758 14.91C-60.422 14.07 -59.96 13.356 -59.372 12.768C-58.772 12.18 -58.064 11.73 -57.248 11.418C-56.42 11.094 -55.514 10.932 -54.53 10.932C-53.558 10.932 -52.646 11.052 -51.794 11.292C-50.942 11.52 -50.18 11.934 -49.508 12.534L-51.182 14.226C-51.59 13.83 -52.088 13.524 -52.676 13.308C-53.252 13.092 -53.864 12.984 -54.512 12.984C-55.172 12.984 -55.772 13.104 -56.312 13.344C-56.84 13.572 -57.296 13.896 -57.68 14.316C-58.064 14.724 -58.364 15.204 -58.58 15.756C-58.784 16.308 -58.886 16.902 -58.886 17.538C-58.886 18.222 -58.784 18.852 -58.58 19.428C-58.364 20.004 -58.064 20.502 -57.68 20.922C-57.296 21.342 -56.84 21.672 -56.312 21.912C-55.772 22.152 -55.172 22.272 -54.512 22.272C-53.936 22.272 -53.396 22.218 -52.892 22.11C-52.376 22.002 -51.92 21.834 -51.524 21.606V18.6H-54.134V16.548H-49.256V23.064ZM-46.5682 11.256H-38.1262V13.308H-44.3002V16.44H-38.4502V18.492H-44.3002V21.948H-37.8022V24H-46.5682V11.256ZM-32.9543 13.308H-36.8603V11.256H-26.7803V13.308H-30.6863V24H-32.9543V13.308ZM-13.6562 13.992C-13.8962 13.644 -14.2202 13.392 -14.6282 13.236C-15.0242 13.068 -15.4442 12.984 -15.8882 12.984C-16.1522 12.984 -16.4102 13.014 -16.6622 13.074C-16.9022 13.134 -17.1242 13.23 -17.3282 13.362C-17.5202 13.494 -17.6762 13.668 -17.7962 13.884C-17.9162 14.088 -17.9762 14.334 -17.9762 14.622C-17.9762 15.054 -17.8262 15.384 -17.5262 15.612C-17.2262 15.84 -16.8542 16.038 -16.4102 16.206C-15.9662 16.374 -15.4802 16.536 -14.9522 16.692C-14.4242 16.848 -13.9382 17.064 -13.4942 17.34C-13.0502 17.616 -12.6782 17.982 -12.3782 18.438C-12.0782 18.894 -11.9282 19.5 -11.9282 20.256C-11.9282 20.94 -12.0542 21.54 -12.3062 22.056C-12.5582 22.56 -12.9002 22.98 -13.3322 23.316C-13.7522 23.652 -14.2442 23.904 -14.8082 24.072C-15.3722 24.24 -15.9662 24.324 -16.5902 24.324C-17.3822 24.324 -18.1442 24.192 -18.8762 23.928C-19.6082 23.664 -20.2382 23.22 -20.7662 22.596L-19.0562 20.94C-18.7802 21.36 -18.4202 21.69 -17.9762 21.93C-17.5202 22.158 -17.0402 22.272 -16.5362 22.272C-16.2722 22.272 -16.0082 22.236 -15.7442 22.164C-15.4802 22.092 -15.2402 21.984 -15.0242 21.84C-14.8082 21.696 -14.6342 21.516 -14.5022 21.3C-14.3702 21.072 -14.3042 20.814 -14.3042 20.526C-14.3042 20.058 -14.4542 19.698 -14.7542 19.446C-15.0542 19.194 -15.4262 18.984 -15.8702 18.816C-16.3142 18.636 -16.8002 18.468 -17.3282 18.312C-17.8562 18.156 -18.3422 17.946 -18.7862 17.682C-19.2302 17.406 -19.6022 17.046 -19.9022 16.602C-20.2022 16.146 -20.3522 15.54 -20.3522 14.784C-20.3522 14.124 -20.2202 13.554 -19.9562 13.074C-19.6802 12.594 -19.3262 12.198 -18.8942 11.886C-18.4502 11.562 -17.9462 11.322 -17.3822 11.166C-16.8182 11.01 -16.2422 10.932 -15.6542 10.932C-14.9822 10.932 -14.3342 11.034 -13.7102 11.238C-13.0742 11.442 -12.5042 11.778 -12.0002 12.246L-13.6562 13.992ZM-6.95628 13.308H-10.8623V11.256H-0.782281V13.308H-4.68828V24H-6.95628V13.308ZM3.23931 11.256H5.20131L10.6913 24H8.09931L6.91131 21.084H1.38531L0.233313 24H-2.30469L3.23931 11.256ZM6.11931 19.14L4.15731 13.956L2.15931 19.14H6.11931ZM12.1075 11.256H16.5355C17.1475 11.256 17.7355 11.316 18.2995 11.436C18.8755 11.544 19.3855 11.736 19.8295 12.012C20.2735 12.288 20.6275 12.66 20.8915 13.128C21.1555 13.596 21.2875 14.19 21.2875 14.91C21.2875 15.834 21.0295 16.608 20.5135 17.232C20.0095 17.856 19.2835 18.234 18.3355 18.366L21.7195 24H18.9835L16.0315 18.6H14.3755V24H12.1075V11.256ZM16.1395 16.656C16.4635 16.656 16.7875 16.644 17.1115 16.62C17.4355 16.584 17.7295 16.512 17.9935 16.404C18.2695 16.284 18.4915 16.11 18.6595 15.882C18.8275 15.642 18.9115 15.312 18.9115 14.892C18.9115 14.52 18.8335 14.22 18.6775 13.992C18.5215 13.764 18.3175 13.596 18.0655 13.488C17.8135 13.368 17.5315 13.29 17.2195 13.254C16.9195 13.218 16.6255 13.2 16.3375 13.2H14.3755V16.656H16.1395ZM25.739 13.308H21.833V11.256H31.913V13.308H28.007V24H25.739V13.308ZM33.465 11.256H41.907V13.308H35.733V16.44H41.583V18.492H35.733V21.948H42.231V24H33.465V11.256ZM44.4689 11.256H49.4909C50.3309 11.256 51.1409 11.388 51.9209 11.652C52.7009 11.904 53.3909 12.294 53.9909 12.822C54.5909 13.35 55.0709 14.016 55.4309 14.82C55.7909 15.612 55.9709 16.548 55.9709 17.628C55.9709 18.72 55.7609 19.668 55.3409 20.472C54.9329 21.264 54.3989 21.924 53.7389 22.452C53.0909 22.968 52.3649 23.358 51.5609 23.622C50.7689 23.874 49.9889 24 49.2209 24H44.4689V11.256ZM48.4289 21.948C49.1369 21.948 49.8029 21.87 50.4269 21.714C51.0629 21.546 51.6149 21.294 52.0829 20.958C52.5509 20.61 52.9169 20.166 53.1809 19.626C53.4569 19.074 53.5949 18.408 53.5949 17.628C53.5949 16.86 53.4749 16.2 53.2349 15.648C52.9949 15.096 52.6589 14.652 52.2269 14.316C51.8069 13.968 51.3029 13.716 50.7149 13.56C50.1389 13.392 49.5029 13.308 48.8069 13.308H46.7369V21.948H48.4289ZM63.4533 11.256H66.4593L72.6333 20.724H72.6693V11.256H74.9373V24H72.0573L65.7573 14.226H65.7213V24H63.4533V11.256ZM77.0954 17.682C77.0954 16.662 77.2634 15.738 77.5994 14.91C77.9354 14.07 78.3974 13.356 78.9854 12.768C79.5854 12.18 80.2934 11.73 81.1094 11.418C81.9374 11.094 82.8434 10.932 83.8274 10.932C84.8234 10.92 85.7354 11.07 86.5634 11.382C87.3914 11.682 88.1054 12.126 88.7054 12.714C89.3054 13.302 89.7734 14.01 90.1094 14.838C90.4454 15.666 90.6134 16.59 90.6134 17.61C90.6134 18.606 90.4454 19.512 90.1094 20.328C89.7734 21.144 89.3054 21.846 88.7054 22.434C88.1054 23.022 87.3914 23.484 86.5634 23.82C85.7354 24.144 84.8234 24.312 83.8274 24.324C82.8434 24.324 81.9374 24.168 81.1094 23.856C80.2934 23.532 79.5854 23.082 78.9854 22.506C78.3974 21.918 77.9354 21.216 77.5994 20.4C77.2634 19.584 77.0954 18.678 77.0954 17.682ZM79.4714 17.538C79.4714 18.222 79.5734 18.852 79.7774 19.428C79.9934 20.004 80.2934 20.502 80.6774 20.922C81.0614 21.342 81.5174 21.672 82.0454 21.912C82.5854 22.152 83.1854 22.272 83.8454 22.272C84.5054 22.272 85.1054 22.152 85.6454 21.912C86.1854 21.672 86.6474 21.342 87.0314 20.922C87.4154 20.502 87.7094 20.004 87.9134 19.428C88.1294 18.852 88.2374 18.222 88.2374 17.538C88.2374 16.902 88.1294 16.308 87.9134 15.756C87.7094 15.204 87.4154 14.724 87.0314 14.316C86.6474 13.896 86.1854 13.572 85.6454 13.344C85.1054 13.104 84.5054 12.984 83.8454 12.984C83.1854 12.984 82.5854 13.104 82.0454 13.344C81.5174 13.572 81.0614 13.896 80.6774 14.316C80.2934 14.724 79.9934 15.204 79.7774 15.756C79.5734 16.308 79.4714 16.902 79.4714 17.538ZM91.3516 11.256H93.8356L96.2296 20.436H96.2656L99.1276 11.256H101.36L104.168 20.436H104.204L106.706 11.256H109.01L105.302 24H103.142L100.19 14.298H100.154L97.2016 24H95.1136L91.3516 11.256Z" fill="white"/>
<circle cx="122" cy="19" r="4" fill="#97CC04"/>
<path d="M148.744 23.064C147.172 23.904 145.414 24.324 143.47 24.324C142.486 24.324 141.58 24.168 140.752 23.856C139.936 23.532 139.228 23.082 138.628 22.506C138.04 21.918 137.578 21.216 137.242 20.4C136.906 19.584 136.738 18.678 136.738 17.682C136.738 16.662 136.906 15.738 137.242 14.91C137.578 14.07 138.04 13.356 138.628 12.768C139.228 12.18 139.936 11.73 140.752 11.418C141.58 11.094 142.486 10.932 143.47 10.932C144.442 10.932 145.354 11.052 146.206 11.292C147.058 11.52 147.82 11.934 148.492 12.534L146.818 14.226C146.41 13.83 145.912 13.524 145.324 13.308C144.748 13.092 144.136 12.984 143.488 12.984C142.828 12.984 142.228 13.104 141.688 13.344C141.16 13.572 140.704 13.896 140.32 14.316C139.936 14.724 139.636 15.204 139.42 15.756C139.216 16.308 139.114 16.902 139.114 17.538C139.114 18.222 139.216 18.852 139.42 19.428C139.636 20.004 139.936 20.502 140.32 20.922C140.704 21.342 141.16 21.672 141.688 21.912C142.228 22.152 142.828 22.272 143.488 22.272C144.064 22.272 144.604 22.218 145.108 22.11C145.624 22.002 146.08 21.834 146.476 21.606V18.6H143.866V16.548H148.744V23.064ZM151.432 11.256H159.874V13.308H153.7V16.44H159.55V18.492H153.7V21.948H160.198V24H151.432V11.256ZM165.046 13.308H161.14V11.256H171.22V13.308H167.314V24H165.046V13.308ZM184.344 13.992C184.104 13.644 183.78 13.392 183.372 13.236C182.976 13.068 182.556 12.984 182.112 12.984C181.848 12.984 181.59 13.014 181.338 13.074C181.098 13.134 180.876 13.23 180.672 13.362C180.48 13.494 180.324 13.668 180.204 13.884C180.084 14.088 180.024 14.334 180.024 14.622C180.024 15.054 180.174 15.384 180.474 15.612C180.774 15.84 181.146 16.038 181.59 16.206C182.034 16.374 182.52 16.536 183.048 16.692C183.576 16.848 184.062 17.064 184.506 17.34C184.95 17.616 185.322 17.982 185.622 18.438C185.922 18.894 186.072 19.5 186.072 20.256C186.072 20.94 185.946 21.54 185.694 22.056C185.442 22.56 185.1 22.98 184.668 23.316C184.248 23.652 183.756 23.904 183.192 24.072C182.628 24.24 182.034 24.324 181.41 24.324C180.618 24.324 179.856 24.192 179.124 23.928C178.392 23.664 177.762 23.22 177.234 22.596L178.944 20.94C179.22 21.36 179.58 21.69 180.024 21.93C180.48 22.158 180.96 22.272 181.464 22.272C181.728 22.272 181.992 22.236 182.256 22.164C182.52 22.092 182.76 21.984 182.976 21.84C183.192 21.696 183.366 21.516 183.498 21.3C183.63 21.072 183.696 20.814 183.696 20.526C183.696 20.058 183.546 19.698 183.246 19.446C182.946 19.194 182.574 18.984 182.13 18.816C181.686 18.636 181.2 18.468 180.672 18.312C180.144 18.156 179.658 17.946 179.214 17.682C178.77 17.406 178.398 17.046 178.098 16.602C177.798 16.146 177.648 15.54 177.648 14.784C177.648 14.124 177.78 13.554 178.044 13.074C178.32 12.594 178.674 12.198 179.106 11.886C179.55 11.562 180.054 11.322 180.618 11.166C181.182 11.01 181.758 10.932 182.346 10.932C183.018 10.932 183.666 11.034 184.29 11.238C184.926 11.442 185.496 11.778 186 12.246L184.344 13.992ZM191.044 13.308H187.138V11.256H197.218V13.308H193.312V24H191.044V13.308ZM201.239 11.256H203.201L208.691 24H206.099L204.911 21.084H199.385L198.233 24H195.695L201.239 11.256ZM204.119 19.14L202.157 13.956L200.159 19.14H204.119ZM210.108 11.256H214.536C215.148 11.256 215.736 11.316 216.3 11.436C216.876 11.544 217.386 11.736 217.83 12.012C218.274 12.288 218.628 12.66 218.892 13.128C219.156 13.596 219.288 14.19 219.288 14.91C219.288 15.834 219.03 16.608 218.514 17.232C218.01 17.856 217.284 18.234 216.336 18.366L219.72 24H216.984L214.032 18.6H212.376V24H210.108V11.256ZM214.14 16.656C214.464 16.656 214.788 16.644 215.112 16.62C215.436 16.584 215.73 16.512 215.994 16.404C216.27 16.284 216.492 16.11 216.66 15.882C216.828 15.642 216.912 15.312 216.912 14.892C216.912 14.52 216.834 14.22 216.678 13.992C216.522 13.764 216.318 13.596 216.066 13.488C215.814 13.368 215.532 13.29 215.22 13.254C214.92 13.218 214.626 13.2 214.338 13.2H212.376V16.656H214.14ZM223.739 13.308H219.833V11.256H229.913V13.308H226.007V24H223.739V13.308ZM231.465 11.256H239.907V13.308H233.733V16.44H239.583V18.492H233.733V21.948H240.231V24H231.465V11.256ZM242.469 11.256H247.491C248.331 11.256 249.141 11.388 249.921 11.652C250.701 11.904 251.391 12.294 251.991 12.822C252.591 13.35 253.071 14.016 253.431 14.82C253.791 15.612 253.971 16.548 253.971 17.628C253.971 18.72 253.761 19.668 253.341 20.472C252.933 21.264 252.399 21.924 251.739 22.452C251.091 22.968 250.365 23.358 249.561 23.622C248.769 23.874 247.989 24 247.221 24H242.469V11.256ZM246.429 21.948C247.137 21.948 247.803 21.87 248.427 21.714C249.063 21.546 249.615 21.294 250.083 20.958C250.551 20.61 250.917 20.166 251.181 19.626C251.457 19.074 251.595 18.408 251.595 17.628C251.595 16.86 251.475 16.2 251.235 15.648C250.995 15.096 250.659 14.652 250.227 14.316C249.807 13.968 249.303 13.716 248.715 13.56C248.139 13.392 247.503 13.308 246.807 13.308H244.737V21.948H246.429ZM261.453 11.256H264.459L270.633 20.724H270.669V11.256H272.937V24H270.057L263.757 14.226H263.721V24H261.453V11.256ZM275.095 17.682C275.095 16.662 275.263 15.738 275.599 14.91C275.935 14.07 276.397 13.356 276.985 12.768C277.585 12.18 278.293 11.73 279.109 11.418C279.937 11.094 280.843 10.932 281.827 10.932C282.823 10.92 283.735 11.07 284.563 11.382C285.391 11.682 286.105 12.126 286.705 12.714C287.305 13.302 287.773 14.01 288.109 14.838C288.445 15.666 288.613 16.59 288.613 17.61C288.613 18.606 288.445 19.512 288.109 20.328C287.773 21.144 287.305 21.846 286.705 22.434C286.105 23.022 285.391 23.484 284.563 23.82C283.735 24.144 282.823 24.312 281.827 24.324C280.843 24.324 279.937 24.168 279.109 23.856C278.293 23.532 277.585 23.082 276.985 22.506C276.397 21.918 275.935 21.216 275.599 20.4C275.263 19.584 275.095 18.678 275.095 17.682ZM277.471 17.538C277.471 18.222 277.573 18.852 277.777 19.428C277.993 20.004 278.293 20.502 278.677 20.922C279.061 21.342 279.517 21.672 280.045 21.912C280.585 22.152 281.185 22.272 281.845 22.272C282.505 22.272 283.105 22.152 283.645 21.912C284.185 21.672 284.647 21.342 285.031 20.922C285.415 20.502 285.709 20.004 285.913 19.428C286.129 18.852 286.237 18.222 286.237 17.538C286.237 16.902 286.129 16.308 285.913 15.756C285.709 15.204 285.415 14.724 285.031 14.316C284.647 13.896 284.185 13.572 283.645 13.344C283.105 13.104 282.505 12.984 281.845 12.984C281.185 12.984 280.585 13.104 280.045 13.344C279.517 13.572 279.061 13.896 278.677 14.316C278.293 14.724 277.993 15.204 277.777 15.756C277.573 16.308 277.471 16.902 277.471 17.538ZM289.352 11.256H291.836L294.23 20.436H294.266L297.128 11.256H299.36L302.168 20.436H302.204L304.706 11.256H307.01L303.302 24H301.142L298.19 14.298H298.154L295.202 24H293.114L289.352 11.256Z" fill="white"/>
<circle cx="320" cy="19" r="4" fill="#97CC04"/>
<path d="M346.744 23.064C345.172 23.904 343.414 24.324 341.47 24.324C340.486 24.324 339.58 24.168 338.752 23.856C337.936 23.532 337.228 23.082 336.628 22.506C336.04 21.918 335.578 21.216 335.242 20.4C334.906 19.584 334.738 18.678 334.738 17.682C334.738 16.662 334.906 15.738 335.242 14.91C335.578 14.07 336.04 13.356 336.628 12.768C337.228 12.18 337.936 11.73 338.752 11.418C339.58 11.094 340.486 10.932 341.47 10.932C342.442 10.932 343.354 11.052 344.206 11.292C345.058 11.52 345.82 11.934 346.492 12.534L344.818 14.226C344.41 13.83 343.912 13.524 343.324 13.308C342.748 13.092 342.136 12.984 341.488 12.984C340.828 12.984 340.228 13.104 339.688 13.344C339.16 13.572 338.704 13.896 338.32 14.316C337.936 14.724 337.636 15.204 337.42 15.756C337.216 16.308 337.114 16.902 337.114 17.538C337.114 18.222 337.216 18.852 337.42 19.428C337.636 20.004 337.936 20.502 338.32 20.922C338.704 21.342 339.16 21.672 339.688 21.912C340.228 22.152 340.828 22.272 341.488 22.272C342.064 22.272 342.604 22.218 343.108 22.11C343.624 22.002 344.08 21.834 344.476 21.606V18.6H341.866V16.548H346.744V23.064ZM349.432 11.256H357.874V13.308H351.7V16.44H357.55V18.492H351.7V21.948H358.198V24H349.432V11.256ZM363.046 13.308H359.14V11.256H369.22V13.308H365.314V24H363.046V13.308ZM382.344 13.992C382.104 13.644 381.78 13.392 381.372 13.236C380.976 13.068 380.556 12.984 380.112 12.984C379.848 12.984 379.59 13.014 379.338 13.074C379.098 13.134 378.876 13.23 378.672 13.362C378.48 13.494 378.324 13.668 378.204 13.884C378.084 14.088 378.024 14.334 378.024 14.622C378.024 15.054 378.174 15.384 378.474 15.612C378.774 15.84 379.146 16.038 379.59 16.206C380.034 16.374 380.52 16.536 381.048 16.692C381.576 16.848 382.062 17.064 382.506 17.34C382.95 17.616 383.322 17.982 383.622 18.438C383.922 18.894 384.072 19.5 384.072 20.256C384.072 20.94 383.946 21.54 383.694 22.056C383.442 22.56 383.1 22.98 382.668 23.316C382.248 23.652 381.756 23.904 381.192 24.072C380.628 24.24 380.034 24.324 379.41 24.324C378.618 24.324 377.856 24.192 377.124 23.928C376.392 23.664 375.762 23.22 375.234 22.596L376.944 20.94C377.22 21.36 377.58 21.69 378.024 21.93C378.48 22.158 378.96 22.272 379.464 22.272C379.728 22.272 379.992 22.236 380.256 22.164C380.52 22.092 380.76 21.984 380.976 21.84C381.192 21.696 381.366 21.516 381.498 21.3C381.63 21.072 381.696 20.814 381.696 20.526C381.696 20.058 381.546 19.698 381.246 19.446C380.946 19.194 380.574 18.984 380.13 18.816C379.686 18.636 379.2 18.468 378.672 18.312C378.144 18.156 377.658 17.946 377.214 17.682C376.77 17.406 376.398 17.046 376.098 16.602C375.798 16.146 375.648 15.54 375.648 14.784C375.648 14.124 375.78 13.554 376.044 13.074C376.32 12.594 376.674 12.198 377.106 11.886C377.55 11.562 378.054 11.322 378.618 11.166C379.182 11.01 379.758 10.932 380.346 10.932C381.018 10.932 381.666 11.034 382.29 11.238C382.926 11.442 383.496 11.778 384 12.246L382.344 13.992ZM389.044 13.308H385.138V11.256H395.218V13.308H391.312V24H389.044V13.308ZM399.239 11.256H401.201L406.691 24H404.099L402.911 21.084H397.385L396.233 24H393.695L399.239 11.256ZM402.119 19.14L400.157 13.956L398.159 19.14H402.119ZM408.108 11.256H412.536C413.148 11.256 413.736 11.316 414.3 11.436C414.876 11.544 415.386 11.736 415.83 12.012C416.274 12.288 416.628 12.66 416.892 13.128C417.156 13.596 417.288 14.19 417.288 14.91C417.288 15.834 417.03 16.608 416.514 17.232C416.01 17.856 415.284 18.234 414.336 18.366L417.72 24H414.984L412.032 18.6H410.376V24H408.108V11.256ZM412.14 16.656C412.464 16.656 412.788 16.644 413.112 16.62C413.436 16.584 413.73 16.512 413.994 16.404C414.27 16.284 414.492 16.11 414.66 15.882C414.828 15.642 414.912 15.312 414.912 14.892C414.912 14.52 414.834 14.22 414.678 13.992C414.522 13.764 414.318 13.596 414.066 13.488C413.814 13.368 413.532 13.29 413.22 13.254C412.92 13.218 412.626 13.2 412.338 13.2H410.376V16.656H412.14ZM421.739 13.308H417.833V11.256H427.913V13.308H424.007V24H421.739V13.308ZM429.465 11.256H437.907V13.308H431.733V16.44H437.583V18.492H431.733V21.948H438.231V24H429.465V11.256ZM440.469 11.256H445.491C446.331 11.256 447.141 11.388 447.921 11.652C448.701 11.904 449.391 12.294 449.991 12.822C450.591 13.35 451.071 14.016 451.431 14.82C451.791 15.612 451.971 16.548 451.971 17.628C451.971 18.72 451.761 19.668 451.341 20.472C450.933 21.264 450.399 21.924 449.739 22.452C449.091 22.968 448.365 23.358 447.561 23.622C446.769 23.874 445.989 24 445.221 24H440.469V11.256ZM444.429 21.948C445.137 21.948 445.803 21.87 446.427 21.714C447.063 21.546 447.615 21.294 448.083 20.958C448.551 20.61 448.917 20.166 449.181 19.626C449.457 19.074 449.595 18.408 449.595 17.628C449.595 16.86 449.475 16.2 449.235 15.648C448.995 15.096 448.659 14.652 448.227 14.316C447.807 13.968 447.303 13.716 446.715 13.56C446.139 13.392 445.503 13.308 444.807 13.308H442.737V21.948H444.429ZM459.453 11.256H462.459L468.633 20.724H468.669V11.256H470.937V24H468.057L461.757 14.226H461.721V24H459.453V11.256ZM473.095 17.682C473.095 16.662 473.263 15.738 473.599 14.91C473.935 14.07 474.397 13.356 474.985 12.768C475.585 12.18 476.293 11.73 477.109 11.418C477.937 11.094 478.843 10.932 479.827 10.932C480.823 10.92 481.735 11.07 482.563 11.382C483.391 11.682 484.105 12.126 484.705 12.714C485.305 13.302 485.773 14.01 486.109 14.838C486.445 15.666 486.613 16.59 486.613 17.61C486.613 18.606 486.445 19.512 486.109 20.328C485.773 21.144 485.305 21.846 484.705 22.434C484.105 23.022 483.391 23.484 482.563 23.82C481.735 24.144 480.823 24.312 479.827 24.324C478.843 24.324 477.937 24.168 477.109 23.856C476.293 23.532 475.585 23.082 474.985 22.506C474.397 21.918 473.935 21.216 473.599 20.4C473.263 19.584 473.095 18.678 473.095 17.682ZM475.471 17.538C475.471 18.222 475.573 18.852 475.777 19.428C475.993 20.004 476.293 20.502 476.677 20.922C477.061 21.342 477.517 21.672 478.045 21.912C478.585 22.152 479.185 22.272 479.845 22.272C480.505 22.272 481.105 22.152 481.645 21.912C482.185 21.672 482.647 21.342 483.031 20.922C483.415 20.502 483.709 20.004 483.913 19.428C484.129 18.852 484.237 18.222 484.237 17.538C484.237 16.902 484.129 16.308 483.913 15.756C483.709 15.204 483.415 14.724 483.031 14.316C482.647 13.896 482.185 13.572 481.645 13.344C481.105 13.104 480.505 12.984 479.845 12.984C479.185 12.984 478.585 13.104 478.045 13.344C477.517 13.572 477.061 13.896 476.677 14.316C476.293 14.724 475.993 15.204 475.777 15.756C475.573 16.308 475.471 16.902 475.471 17.538ZM487.352 11.256H489.836L492.23 20.436H492.266L495.128 11.256H497.36L500.168 20.436H500.204L502.706 11.256H505.01L501.302 24H499.142L496.19 14.298H496.154L493.202 24H491.114L487.352 11.256Z" fill="white"/>
</svg>
