<svg width="1439" height="80" viewBox="0 0 1439 80" fill="none" xmlns="http://www.w3.org/2000/svg">
<g clip-path="url(#clip0_1_625)">
<rect width="1439" height="80" fill="#1D2700"/>
<path d="M-68.084 47.5372C-70.5406 48.85 -73.288 49.5063 -76.326 49.5063C-77.8638 49.5063 -79.2797 49.2625 -80.5737 48.775C-81.8489 48.2686 -82.9554 47.5654 -83.893 46.6652C-84.8119 45.7463 -85.5339 44.6492 -86.059 43.374C-86.5841 42.0988 -86.8467 40.6829 -86.8467 39.1264C-86.8467 37.5323 -86.5841 36.0883 -86.059 34.7944C-85.5339 33.4816 -84.8119 32.3658 -83.893 31.4469C-82.9554 30.528 -81.8489 29.8247 -80.5737 29.3371C-79.2797 28.8308 -77.8638 28.5776 -76.326 28.5776C-74.807 28.5776 -73.3818 28.7652 -72.0503 29.1402C-70.7188 29.4965 -69.528 30.1435 -68.4778 31.0812L-71.0939 33.7254C-71.7315 33.1065 -72.5097 32.6283 -73.4287 32.2908C-74.3288 31.9532 -75.2852 31.7844 -76.2979 31.7844C-77.3294 31.7844 -78.267 31.972 -79.1109 32.347C-79.9361 32.7034 -80.6487 33.2097 -81.2488 33.8661C-81.8489 34.5037 -82.3177 35.2538 -82.6553 36.1165C-82.9741 36.9791 -83.1335 37.9074 -83.1335 38.9013C-83.1335 39.9703 -82.9741 40.9548 -82.6553 41.855C-82.3177 42.7551 -81.8489 43.5334 -81.2488 44.1898C-80.6487 44.8461 -79.9361 45.3619 -79.1109 45.7369C-78.267 46.112 -77.3294 46.2995 -76.2979 46.2995C-75.3978 46.2995 -74.5539 46.2151 -73.7662 46.0463C-72.9598 45.8776 -72.2472 45.615 -71.6283 45.2587V40.561H-75.7072V37.3542H-68.084V47.5372ZM-63.8836 29.084H-50.6906V32.2908H-60.3392V37.1854H-51.1969V40.3922H-60.3392V45.7932H-50.1843V49H-63.8836V29.084ZM-42.6081 32.2908H-48.7123V29.084H-32.9595V32.2908H-39.0637V49H-42.6081V32.2908ZM-12.4494 33.3597C-12.8245 32.8159 -13.3308 32.4221 -13.9684 32.1783C-14.5873 31.9157 -15.2437 31.7844 -15.9375 31.7844C-16.3501 31.7844 -16.7533 31.8313 -17.1471 31.9251C-17.5222 32.0189 -17.8691 32.1689 -18.1879 32.3752C-18.488 32.5815 -18.7318 32.8534 -18.9193 33.1909C-19.1068 33.5097 -19.2006 33.8942 -19.2006 34.3443C-19.2006 35.0194 -18.9662 35.5351 -18.4974 35.8914C-18.0285 36.2477 -17.4472 36.5572 -16.7533 36.8197C-16.0594 37.0823 -15.2999 37.3354 -14.4748 37.5792C-13.6496 37.823 -12.8901 38.1606 -12.1962 38.5919C-11.5024 39.0232 -10.921 39.5952 -10.4522 40.3078C-9.98335 41.0205 -9.74894 41.9675 -9.74894 43.149C-9.74894 44.2179 -9.94585 45.1556 -10.3397 45.962C-10.7335 46.7496 -11.268 47.406 -11.9431 47.9311C-12.5994 48.4562 -13.3683 48.85 -14.2497 49.1125C-15.1311 49.3751 -16.0594 49.5063 -17.0346 49.5063C-18.2723 49.5063 -19.4632 49.3001 -20.6071 48.8875C-21.7511 48.4749 -22.7356 47.781 -23.5608 46.8059L-20.8884 44.2179C-20.4571 44.8743 -19.8945 45.39 -19.2006 45.7651C-18.488 46.1214 -17.7379 46.2995 -16.9502 46.2995C-16.5376 46.2995 -16.1251 46.2433 -15.7125 46.1307C-15.2999 46.0182 -14.9249 45.8494 -14.5873 45.6244C-14.2497 45.3994 -13.9778 45.1181 -13.7715 44.7805C-13.5652 44.4242 -13.4621 44.021 -13.4621 43.5709C-13.4621 42.8395 -13.6965 42.2769 -14.1653 41.8831C-14.6342 41.4893 -15.2155 41.1611 -15.9094 40.8986C-16.6033 40.6173 -17.3628 40.3547 -18.1879 40.1109C-19.0131 39.8671 -19.7726 39.5389 -20.4665 39.1264C-21.1603 38.695 -21.7417 38.1324 -22.2105 37.4386C-22.6794 36.7259 -22.9138 35.7789 -22.9138 34.5974C-22.9138 33.566 -22.7075 32.6752 -22.2949 31.9251C-21.8636 31.175 -21.3104 30.5561 -20.6352 30.0685C-19.9414 29.5622 -19.1537 29.1871 -18.2723 28.9433C-17.3909 28.6995 -16.4908 28.5776 -15.5718 28.5776C-14.5217 28.5776 -13.509 28.737 -12.5338 29.0558C-11.5399 29.3746 -10.6491 29.8997 -9.86146 30.6311L-12.4494 33.3597ZM-1.9789 32.2908H-8.08311V29.084H7.66969V32.2908H1.56548V49H-1.9789V32.2908ZM13.9545 29.084H17.0207L25.6004 49H21.5496L19.6931 44.4429H11.0572L9.25683 49H5.2905L13.9545 29.084ZM18.4553 41.4049L15.3892 33.3035L12.2667 41.4049H18.4553ZM27.8136 29.084H34.7336C35.69 29.084 36.6089 29.1777 37.4903 29.3653C38.3905 29.534 39.1875 29.8341 39.8814 30.2654C40.5753 30.6967 41.1285 31.2781 41.5411 32.0095C41.9536 32.7409 42.1599 33.6692 42.1599 34.7944C42.1599 36.2384 41.7567 37.4479 40.9503 38.4231C40.1627 39.3983 39.0281 39.989 37.5466 40.1953L42.835 49H38.5593L33.946 40.561H31.358V49H27.8136V29.084ZM34.1147 37.523C34.6211 37.523 35.1274 37.5042 35.6338 37.4667C36.1401 37.4104 36.5996 37.2979 37.0121 37.1291C37.4435 36.9416 37.7904 36.6697 38.0529 36.3134C38.3155 35.9383 38.4468 35.4226 38.4468 34.7662C38.4468 34.1849 38.3249 33.716 38.0811 33.3597C37.8373 33.0034 37.5185 32.7409 37.1247 32.5721C36.7308 32.3845 36.2901 32.2626 35.8025 32.2064C35.3337 32.1501 34.8743 32.122 34.4242 32.122H31.358V37.523H34.1147ZM49.1166 32.2908H43.0124V29.084H58.7652V32.2908H52.661V49H49.1166V32.2908ZM61.1905 29.084H74.3835V32.2908H64.7349V37.1854H73.8772V40.3922H64.7349V45.7932H74.8898V49H61.1905V29.084ZM78.3872 29.084H86.2355C87.5482 29.084 88.814 29.2902 90.033 29.7028C91.252 30.0966 92.3303 30.7061 93.268 31.5313C94.2056 32.3564 94.9558 33.3972 95.5184 34.6537C96.081 35.8914 96.3623 37.3542 96.3623 39.042C96.3623 40.7485 96.0341 42.23 95.3777 43.4865C94.7401 44.7242 93.9056 45.7557 92.8741 46.5808C91.8615 47.3872 90.7269 47.9967 89.4704 48.4093C88.2327 48.8031 87.0137 49 85.8135 49H78.3872V29.084ZM84.5758 45.7932C85.6822 45.7932 86.723 45.6713 87.6982 45.4275C88.6921 45.1649 89.5548 44.7711 90.2862 44.246C91.0176 43.7022 91.5895 43.0083 92.0021 42.1644C92.4334 41.3018 92.6491 40.2609 92.6491 39.042C92.6491 37.8418 92.4616 36.8103 92.0865 35.9477C91.7114 35.085 91.1863 34.3912 90.5112 33.8661C89.8549 33.3222 89.0672 32.9284 88.1483 32.6846C87.2481 32.4221 86.2542 32.2908 85.1665 32.2908H81.9316V45.7932H84.5758ZM108.056 29.084H112.753L122.402 43.8803H122.458V29.084H126.002V49H121.502L111.656 33.7254H111.6V49H108.056V29.084ZM129.375 39.1264C129.375 37.5323 129.638 36.0883 130.163 34.7944C130.688 33.4816 131.41 32.3658 132.329 31.4469C133.267 30.528 134.373 29.8247 135.648 29.3371C136.942 28.8308 138.358 28.5776 139.896 28.5776C141.452 28.5589 142.878 28.7933 144.172 29.2809C145.466 29.7497 146.581 30.4436 147.519 31.3625C148.457 32.2814 149.188 33.3879 149.713 34.6818C150.238 35.9758 150.501 37.4198 150.501 39.0138C150.501 40.5704 150.238 41.9863 149.713 43.2615C149.188 44.5367 148.457 45.6338 147.519 46.5527C146.581 47.4716 145.466 48.1936 144.172 48.7187C142.878 49.225 141.452 49.4876 139.896 49.5063C138.358 49.5063 136.942 49.2625 135.648 48.775C134.373 48.2686 133.267 47.5654 132.329 46.6652C131.41 45.7463 130.688 44.6492 130.163 43.374C129.638 42.0988 129.375 40.6829 129.375 39.1264ZM133.088 38.9013C133.088 39.9703 133.248 40.9548 133.567 41.855C133.904 42.7551 134.373 43.5334 134.973 44.1898C135.573 44.8461 136.286 45.3619 137.111 45.7369C137.955 46.112 138.893 46.2995 139.924 46.2995C140.955 46.2995 141.893 46.112 142.737 45.7369C143.581 45.3619 144.303 44.8461 144.903 44.1898C145.503 43.5334 145.963 42.7551 146.281 41.855C146.619 40.9548 146.788 39.9703 146.788 38.9013C146.788 37.9074 146.619 36.9791 146.281 36.1165C145.963 35.2538 145.503 34.5037 144.903 33.8661C144.303 33.2097 143.581 32.7034 142.737 32.347C141.893 31.972 140.955 31.7844 139.924 31.7844C138.893 31.7844 137.955 31.972 137.111 32.347C136.286 32.7034 135.573 33.2097 134.973 33.8661C134.373 34.5037 133.904 35.2538 133.567 36.1165C133.248 36.9791 133.088 37.9074 133.088 38.9013ZM151.654 29.084H155.536L159.278 43.4303H159.334L163.807 29.084H167.295L171.683 43.4303H171.739L175.649 29.084H179.25L173.455 49H170.08L165.466 33.8379H165.41L160.797 49H157.534L151.654 29.084Z" fill="white"/>
<circle cx="210" cy="40" r="6" fill="#97CC04"/>
<path d="M259.916 47.5372C257.459 48.85 254.712 49.5063 251.674 49.5063C250.136 49.5063 248.72 49.2625 247.426 48.775C246.151 48.2686 245.045 47.5654 244.107 46.6652C243.188 45.7463 242.466 44.6492 241.941 43.374C241.416 42.0988 241.153 40.6829 241.153 39.1264C241.153 37.5323 241.416 36.0883 241.941 34.7944C242.466 33.4816 243.188 32.3658 244.107 31.4469C245.045 30.528 246.151 29.8247 247.426 29.3371C248.72 28.8308 250.136 28.5776 251.674 28.5776C253.193 28.5776 254.618 28.7652 255.95 29.1402C257.281 29.4965 258.472 30.1435 259.522 31.0812L256.906 33.7254C256.269 33.1065 255.49 32.6283 254.571 32.2908C253.671 31.9532 252.715 31.7844 251.702 31.7844C250.671 31.7844 249.733 31.972 248.889 32.347C248.064 32.7034 247.351 33.2097 246.751 33.8661C246.151 34.5037 245.682 35.2538 245.345 36.1165C245.026 36.9791 244.866 37.9074 244.866 38.9013C244.866 39.9703 245.026 40.9548 245.345 41.855C245.682 42.7551 246.151 43.5334 246.751 44.1898C247.351 44.8461 248.064 45.3619 248.889 45.7369C249.733 46.112 250.671 46.2995 251.702 46.2995C252.602 46.2995 253.446 46.2151 254.234 46.0463C255.04 45.8776 255.753 45.615 256.372 45.2587V40.561H252.293V37.3542H259.916V47.5372ZM264.116 29.084H277.309V32.2908H267.661V37.1854H276.803V40.3922H267.661V45.7932H277.816V49H264.116V29.084ZM285.392 32.2908H279.288V29.084H295.041V32.2908H288.936V49H285.392V32.2908ZM315.551 33.3597C315.176 32.8159 314.669 32.4221 314.032 32.1783C313.413 31.9157 312.756 31.7844 312.062 31.7844C311.65 31.7844 311.247 31.8313 310.853 31.9251C310.478 32.0189 310.131 32.1689 309.812 32.3752C309.512 32.5815 309.268 32.8534 309.081 33.1909C308.893 33.5097 308.799 33.8942 308.799 34.3443C308.799 35.0194 309.034 35.5351 309.503 35.8914C309.971 36.2477 310.553 36.5572 311.247 36.8197C311.941 37.0823 312.7 37.3354 313.525 37.5792C314.35 37.823 315.11 38.1606 315.804 38.5919C316.498 39.0232 317.079 39.5952 317.548 40.3078C318.017 41.0205 318.251 41.9675 318.251 43.149C318.251 44.2179 318.054 45.1556 317.66 45.962C317.267 46.7496 316.732 47.406 316.057 47.9311C315.401 48.4562 314.632 48.85 313.75 49.1125C312.869 49.3751 311.941 49.5063 310.965 49.5063C309.728 49.5063 308.537 49.3001 307.393 48.8875C306.249 48.4749 305.264 47.781 304.439 46.8059L307.112 44.2179C307.543 44.8743 308.106 45.39 308.799 45.7651C309.512 46.1214 310.262 46.2995 311.05 46.2995C311.462 46.2995 311.875 46.2433 312.288 46.1307C312.7 46.0182 313.075 45.8494 313.413 45.6244C313.75 45.3994 314.022 45.1181 314.228 44.7805C314.435 44.4242 314.538 44.021 314.538 43.5709C314.538 42.8395 314.303 42.2769 313.835 41.8831C313.366 41.4893 312.784 41.1611 312.091 40.8986C311.397 40.6173 310.637 40.3547 309.812 40.1109C308.987 39.8671 308.227 39.5389 307.534 39.1264C306.84 38.695 306.258 38.1324 305.789 37.4386C305.321 36.7259 305.086 35.7789 305.086 34.5974C305.086 33.566 305.293 32.6752 305.705 31.9251C306.136 31.175 306.69 30.5561 307.365 30.0685C308.059 29.5622 308.846 29.1871 309.728 28.9433C310.609 28.6995 311.509 28.5776 312.428 28.5776C313.478 28.5776 314.491 28.737 315.466 29.0558C316.46 29.3746 317.351 29.8997 318.139 30.6311L315.551 33.3597ZM326.021 32.2908H319.917V29.084H335.67V32.2908H329.565V49H326.021V32.2908ZM341.955 29.084H345.021L353.6 49H349.55L347.693 44.4429H339.057L337.257 49H333.291L341.955 29.084ZM346.455 41.4049L343.389 33.3035L340.267 41.4049H346.455ZM355.814 29.084H362.734C363.69 29.084 364.609 29.1777 365.49 29.3653C366.391 29.534 367.188 29.8341 367.881 30.2654C368.575 30.6967 369.128 31.2781 369.541 32.0095C369.954 32.7409 370.16 33.6692 370.16 34.7944C370.16 36.2384 369.757 37.4479 368.95 38.4231C368.163 39.3983 367.028 39.989 365.547 40.1953L370.835 49H366.559L361.946 40.561H359.358V49H355.814V29.084ZM362.115 37.523C362.621 37.523 363.127 37.5042 363.634 37.4667C364.14 37.4104 364.6 37.2979 365.012 37.1291C365.443 36.9416 365.79 36.6697 366.053 36.3134C366.315 35.9383 366.447 35.4226 366.447 34.7662C366.447 34.1849 366.325 33.716 366.081 33.3597C365.837 33.0034 365.518 32.7409 365.125 32.5721C364.731 32.3845 364.29 32.2626 363.803 32.2064C363.334 32.1501 362.874 32.122 362.424 32.122H359.358V37.523H362.115ZM377.117 32.2908H371.012V29.084H386.765V32.2908H380.661V49H377.117V32.2908ZM389.191 29.084H402.384V32.2908H392.735V37.1854H401.877V40.3922H392.735V45.7932H402.89V49H389.191V29.084ZM406.387 29.084H414.235C415.548 29.084 416.814 29.2902 418.033 29.7028C419.252 30.0966 420.33 30.7061 421.268 31.5313C422.206 32.3564 422.956 33.3972 423.518 34.6537C424.081 35.8914 424.362 37.3542 424.362 39.042C424.362 40.7485 424.034 42.23 423.378 43.4865C422.74 44.7242 421.906 45.7557 420.874 46.5808C419.861 47.3872 418.727 47.9967 417.47 48.4093C416.233 48.8031 415.014 49 413.814 49H406.387V29.084ZM412.576 45.7932C413.682 45.7932 414.723 45.6713 415.698 45.4275C416.692 45.1649 417.555 44.7711 418.286 44.246C419.018 43.7022 419.59 43.0083 420.002 42.1644C420.433 41.3018 420.649 40.2609 420.649 39.042C420.649 37.8418 420.462 36.8103 420.086 35.9477C419.711 35.085 419.186 34.3912 418.511 33.8661C417.855 33.3222 417.067 32.9284 416.148 32.6846C415.248 32.4221 414.254 32.2908 413.167 32.2908H409.932V45.7932H412.576ZM436.056 29.084H440.753L450.402 43.8803H450.458V29.084H454.002V49H449.502L439.656 33.7254H439.6V49H436.056V29.084ZM457.375 39.1264C457.375 37.5323 457.638 36.0883 458.163 34.7944C458.688 33.4816 459.41 32.3658 460.329 31.4469C461.267 30.528 462.373 29.8247 463.648 29.3371C464.942 28.8308 466.358 28.5776 467.896 28.5776C469.452 28.5589 470.878 28.7933 472.172 29.2809C473.466 29.7497 474.581 30.4436 475.519 31.3625C476.457 32.2814 477.188 33.3879 477.713 34.6818C478.238 35.9758 478.501 37.4198 478.501 39.0138C478.501 40.5704 478.238 41.9863 477.713 43.2615C477.188 44.5367 476.457 45.6338 475.519 46.5527C474.581 47.4716 473.466 48.1936 472.172 48.7187C470.878 49.225 469.452 49.4876 467.896 49.5063C466.358 49.5063 464.942 49.2625 463.648 48.775C462.373 48.2686 461.267 47.5654 460.329 46.6652C459.41 45.7463 458.688 44.6492 458.163 43.374C457.638 42.0988 457.375 40.6829 457.375 39.1264ZM461.088 38.9013C461.088 39.9703 461.248 40.9548 461.567 41.855C461.904 42.7551 462.373 43.5334 462.973 44.1898C463.573 44.8461 464.286 45.3619 465.111 45.7369C465.955 46.112 466.893 46.2995 467.924 46.2995C468.955 46.2995 469.893 46.112 470.737 45.7369C471.581 45.3619 472.303 44.8461 472.903 44.1898C473.503 43.5334 473.963 42.7551 474.281 41.855C474.619 40.9548 474.788 39.9703 474.788 38.9013C474.788 37.9074 474.619 36.9791 474.281 36.1165C473.963 35.2538 473.503 34.5037 472.903 33.8661C472.303 33.2097 471.581 32.7034 470.737 32.347C469.893 31.972 468.955 31.7844 467.924 31.7844C466.893 31.7844 465.955 31.972 465.111 32.347C464.286 32.7034 463.573 33.2097 462.973 33.8661C462.373 34.5037 461.904 35.2538 461.567 36.1165C461.248 36.9791 461.088 37.9074 461.088 38.9013ZM479.654 29.084H483.536L487.278 43.4303H487.334L491.807 29.084H495.295L499.683 43.4303H499.739L503.649 29.084H507.25L501.455 49H498.08L493.466 33.8379H493.41L488.797 49H485.534L479.654 29.084Z" fill="white"/>
<circle cx="538" cy="40" r="6" fill="#97CC04"/>
<path d="M587.916 47.5372C585.459 48.85 582.712 49.5063 579.674 49.5063C578.136 49.5063 576.72 49.2625 575.426 48.775C574.151 48.2686 573.045 47.5654 572.107 46.6652C571.188 45.7463 570.466 44.6492 569.941 43.374C569.416 42.0988 569.153 40.6829 569.153 39.1264C569.153 37.5323 569.416 36.0883 569.941 34.7944C570.466 33.4816 571.188 32.3658 572.107 31.4469C573.045 30.528 574.151 29.8247 575.426 29.3371C576.72 28.8308 578.136 28.5776 579.674 28.5776C581.193 28.5776 582.618 28.7652 583.95 29.1402C585.281 29.4965 586.472 30.1435 587.522 31.0812L584.906 33.7254C584.269 33.1065 583.49 32.6283 582.571 32.2908C581.671 31.9532 580.715 31.7844 579.702 31.7844C578.671 31.7844 577.733 31.972 576.889 32.347C576.064 32.7034 575.351 33.2097 574.751 33.8661C574.151 34.5037 573.682 35.2538 573.345 36.1165C573.026 36.9791 572.866 37.9074 572.866 38.9013C572.866 39.9703 573.026 40.9548 573.345 41.855C573.682 42.7551 574.151 43.5334 574.751 44.1898C575.351 44.8461 576.064 45.3619 576.889 45.7369C577.733 46.112 578.671 46.2995 579.702 46.2995C580.602 46.2995 581.446 46.2151 582.234 46.0463C583.04 45.8776 583.753 45.615 584.372 45.2587V40.561H580.293V37.3542H587.916V47.5372ZM592.116 29.084H605.309V32.2908H595.661V37.1854H604.803V40.3922H595.661V45.7932H605.816V49H592.116V29.084ZM613.392 32.2908H607.288V29.084H623.041V32.2908H616.936V49H613.392V32.2908ZM643.551 33.3597C643.176 32.8159 642.669 32.4221 642.032 32.1783C641.413 31.9157 640.756 31.7844 640.062 31.7844C639.65 31.7844 639.247 31.8313 638.853 31.9251C638.478 32.0189 638.131 32.1689 637.812 32.3752C637.512 32.5815 637.268 32.8534 637.081 33.1909C636.893 33.5097 636.799 33.8942 636.799 34.3443C636.799 35.0194 637.034 35.5351 637.503 35.8914C637.971 36.2477 638.553 36.5572 639.247 36.8197C639.941 37.0823 640.7 37.3354 641.525 37.5792C642.35 37.823 643.11 38.1606 643.804 38.5919C644.498 39.0232 645.079 39.5952 645.548 40.3078C646.017 41.0205 646.251 41.9675 646.251 43.149C646.251 44.2179 646.054 45.1556 645.66 45.962C645.267 46.7496 644.732 47.406 644.057 47.9311C643.401 48.4562 642.632 48.85 641.75 49.1125C640.869 49.3751 639.941 49.5063 638.965 49.5063C637.728 49.5063 636.537 49.3001 635.393 48.8875C634.249 48.4749 633.264 47.781 632.439 46.8059L635.112 44.2179C635.543 44.8743 636.106 45.39 636.799 45.7651C637.512 46.1214 638.262 46.2995 639.05 46.2995C639.462 46.2995 639.875 46.2433 640.288 46.1307C640.7 46.0182 641.075 45.8494 641.413 45.6244C641.75 45.3994 642.022 45.1181 642.228 44.7805C642.435 44.4242 642.538 44.021 642.538 43.5709C642.538 42.8395 642.303 42.2769 641.835 41.8831C641.366 41.4893 640.784 41.1611 640.091 40.8986C639.397 40.6173 638.637 40.3547 637.812 40.1109C636.987 39.8671 636.227 39.5389 635.534 39.1264C634.84 38.695 634.258 38.1324 633.789 37.4386C633.321 36.7259 633.086 35.7789 633.086 34.5974C633.086 33.566 633.293 32.6752 633.705 31.9251C634.136 31.175 634.69 30.5561 635.365 30.0685C636.059 29.5622 636.846 29.1871 637.728 28.9433C638.609 28.6995 639.509 28.5776 640.428 28.5776C641.478 28.5776 642.491 28.737 643.466 29.0558C644.46 29.3746 645.351 29.8997 646.139 30.6311L643.551 33.3597ZM654.021 32.2908H647.917V29.084H663.67V32.2908H657.565V49H654.021V32.2908ZM669.955 29.084H673.021L681.6 49H677.55L675.693 44.4429H667.057L665.257 49H661.291L669.955 29.084ZM674.455 41.4049L671.389 33.3035L668.267 41.4049H674.455ZM683.814 29.084H690.734C691.69 29.084 692.609 29.1777 693.49 29.3653C694.391 29.534 695.188 29.8341 695.881 30.2654C696.575 30.6967 697.128 31.2781 697.541 32.0095C697.954 32.7409 698.16 33.6692 698.16 34.7944C698.16 36.2384 697.757 37.4479 696.95 38.4231C696.163 39.3983 695.028 39.989 693.547 40.1953L698.835 49H694.559L689.946 40.561H687.358V49H683.814V29.084ZM690.115 37.523C690.621 37.523 691.127 37.5042 691.634 37.4667C692.14 37.4104 692.6 37.2979 693.012 37.1291C693.443 36.9416 693.79 36.6697 694.053 36.3134C694.315 35.9383 694.447 35.4226 694.447 34.7662C694.447 34.1849 694.325 33.716 694.081 33.3597C693.837 33.0034 693.518 32.7409 693.125 32.5721C692.731 32.3845 692.29 32.2626 691.803 32.2064C691.334 32.1501 690.874 32.122 690.424 32.122H687.358V37.523H690.115ZM705.117 32.2908H699.012V29.084H714.765V32.2908H708.661V49H705.117V32.2908ZM717.191 29.084H730.384V32.2908H720.735V37.1854H729.877V40.3922H720.735V45.7932H730.89V49H717.191V29.084ZM734.387 29.084H742.235C743.548 29.084 744.814 29.2902 746.033 29.7028C747.252 30.0966 748.33 30.7061 749.268 31.5313C750.206 32.3564 750.956 33.3972 751.518 34.6537C752.081 35.8914 752.362 37.3542 752.362 39.042C752.362 40.7485 752.034 42.23 751.378 43.4865C750.74 44.7242 749.906 45.7557 748.874 46.5808C747.861 47.3872 746.727 47.9967 745.47 48.4093C744.233 48.8031 743.014 49 741.814 49H734.387V29.084ZM740.576 45.7932C741.682 45.7932 742.723 45.6713 743.698 45.4275C744.692 45.1649 745.555 44.7711 746.286 44.246C747.018 43.7022 747.59 43.0083 748.002 42.1644C748.433 41.3018 748.649 40.2609 748.649 39.042C748.649 37.8418 748.462 36.8103 748.086 35.9477C747.711 35.085 747.186 34.3912 746.511 33.8661C745.855 33.3222 745.067 32.9284 744.148 32.6846C743.248 32.4221 742.254 32.2908 741.167 32.2908H737.932V45.7932H740.576ZM764.056 29.084H768.753L778.402 43.8803H778.458V29.084H782.002V49H777.502L767.656 33.7254H767.6V49H764.056V29.084ZM785.375 39.1264C785.375 37.5323 785.638 36.0883 786.163 34.7944C786.688 33.4816 787.41 32.3658 788.329 31.4469C789.267 30.528 790.373 29.8247 791.648 29.3371C792.942 28.8308 794.358 28.5776 795.896 28.5776C797.452 28.5589 798.878 28.7933 800.172 29.2809C801.466 29.7497 802.581 30.4436 803.519 31.3625C804.457 32.2814 805.188 33.3879 805.713 34.6818C806.238 35.9758 806.501 37.4198 806.501 39.0138C806.501 40.5704 806.238 41.9863 805.713 43.2615C805.188 44.5367 804.457 45.6338 803.519 46.5527C802.581 47.4716 801.466 48.1936 800.172 48.7187C798.878 49.225 797.452 49.4876 795.896 49.5063C794.358 49.5063 792.942 49.2625 791.648 48.775C790.373 48.2686 789.267 47.5654 788.329 46.6652C787.41 45.7463 786.688 44.6492 786.163 43.374C785.638 42.0988 785.375 40.6829 785.375 39.1264ZM789.088 38.9013C789.088 39.9703 789.248 40.9548 789.567 41.855C789.904 42.7551 790.373 43.5334 790.973 44.1898C791.573 44.8461 792.286 45.3619 793.111 45.7369C793.955 46.112 794.893 46.2995 795.924 46.2995C796.955 46.2995 797.893 46.112 798.737 45.7369C799.581 45.3619 800.303 44.8461 800.903 44.1898C801.503 43.5334 801.963 42.7551 802.281 41.855C802.619 40.9548 802.788 39.9703 802.788 38.9013C802.788 37.9074 802.619 36.9791 802.281 36.1165C801.963 35.2538 801.503 34.5037 800.903 33.8661C800.303 33.2097 799.581 32.7034 798.737 32.347C797.893 31.972 796.955 31.7844 795.924 31.7844C794.893 31.7844 793.955 31.972 793.111 32.347C792.286 32.7034 791.573 33.2097 790.973 33.8661C790.373 34.5037 789.904 35.2538 789.567 36.1165C789.248 36.9791 789.088 37.9074 789.088 38.9013ZM807.654 29.084H811.536L815.278 43.4303H815.334L819.807 29.084H823.295L827.683 43.4303H827.739L831.649 29.084H835.25L829.455 49H826.08L821.466 33.8379H821.41L816.797 49H813.534L807.654 29.084Z" fill="white"/>
<circle cx="866" cy="40" r="6" fill="#97CC04"/>
<path d="M915.916 47.5372C913.459 48.85 910.712 49.5063 907.674 49.5063C906.136 49.5063 904.72 49.2625 903.426 48.775C902.151 48.2686 901.045 47.5654 900.107 46.6652C899.188 45.7463 898.466 44.6492 897.941 43.374C897.416 42.0988 897.153 40.6829 897.153 39.1264C897.153 37.5323 897.416 36.0883 897.941 34.7944C898.466 33.4816 899.188 32.3658 900.107 31.4469C901.045 30.528 902.151 29.8247 903.426 29.3371C904.72 28.8308 906.136 28.5776 907.674 28.5776C909.193 28.5776 910.618 28.7652 911.95 29.1402C913.281 29.4965 914.472 30.1435 915.522 31.0812L912.906 33.7254C912.269 33.1065 911.49 32.6283 910.571 32.2908C909.671 31.9532 908.715 31.7844 907.702 31.7844C906.671 31.7844 905.733 31.972 904.889 32.347C904.064 32.7034 903.351 33.2097 902.751 33.8661C902.151 34.5037 901.682 35.2538 901.345 36.1165C901.026 36.9791 900.866 37.9074 900.866 38.9013C900.866 39.9703 901.026 40.9548 901.345 41.855C901.682 42.7551 902.151 43.5334 902.751 44.1898C903.351 44.8461 904.064 45.3619 904.889 45.7369C905.733 46.112 906.671 46.2995 907.702 46.2995C908.602 46.2995 909.446 46.2151 910.234 46.0463C911.04 45.8776 911.753 45.615 912.372 45.2587V40.561H908.293V37.3542H915.916V47.5372ZM920.116 29.084H933.309V32.2908H923.661V37.1854H932.803V40.3922H923.661V45.7932H933.816V49H920.116V29.084ZM941.392 32.2908H935.288V29.084H951.041V32.2908H944.936V49H941.392V32.2908ZM971.551 33.3597C971.176 32.8159 970.669 32.4221 970.032 32.1783C969.413 31.9157 968.756 31.7844 968.062 31.7844C967.65 31.7844 967.247 31.8313 966.853 31.9251C966.478 32.0189 966.131 32.1689 965.812 32.3752C965.512 32.5815 965.268 32.8534 965.081 33.1909C964.893 33.5097 964.799 33.8942 964.799 34.3443C964.799 35.0194 965.034 35.5351 965.503 35.8914C965.971 36.2477 966.553 36.5572 967.247 36.8197C967.941 37.0823 968.7 37.3354 969.525 37.5792C970.35 37.823 971.11 38.1606 971.804 38.5919C972.498 39.0232 973.079 39.5952 973.548 40.3078C974.017 41.0205 974.251 41.9675 974.251 43.149C974.251 44.2179 974.054 45.1556 973.66 45.962C973.267 46.7496 972.732 47.406 972.057 47.9311C971.401 48.4562 970.632 48.85 969.75 49.1125C968.869 49.3751 967.941 49.5063 966.965 49.5063C965.728 49.5063 964.537 49.3001 963.393 48.8875C962.249 48.4749 961.264 47.781 960.439 46.8059L963.112 44.2179C963.543 44.8743 964.106 45.39 964.799 45.7651C965.512 46.1214 966.262 46.2995 967.05 46.2995C967.462 46.2995 967.875 46.2433 968.288 46.1307C968.7 46.0182 969.075 45.8494 969.413 45.6244C969.75 45.3994 970.022 45.1181 970.228 44.7805C970.435 44.4242 970.538 44.021 970.538 43.5709C970.538 42.8395 970.303 42.2769 969.835 41.8831C969.366 41.4893 968.784 41.1611 968.091 40.8986C967.397 40.6173 966.637 40.3547 965.812 40.1109C964.987 39.8671 964.227 39.5389 963.534 39.1264C962.84 38.695 962.258 38.1324 961.789 37.4386C961.321 36.7259 961.086 35.7789 961.086 34.5974C961.086 33.566 961.293 32.6752 961.705 31.9251C962.136 31.175 962.69 30.5561 963.365 30.0685C964.059 29.5622 964.846 29.1871 965.728 28.9433C966.609 28.6995 967.509 28.5776 968.428 28.5776C969.478 28.5776 970.491 28.737 971.466 29.0558C972.46 29.3746 973.351 29.8997 974.139 30.6311L971.551 33.3597ZM982.021 32.2908H975.917V29.084H991.67V32.2908H985.565V49H982.021V32.2908ZM997.955 29.084H1001.02L1009.6 49H1005.55L1003.69 44.4429H995.057L993.257 49H989.291L997.955 29.084ZM1002.46 41.4049L999.389 33.3035L996.267 41.4049H1002.46ZM1011.81 29.084H1018.73C1019.69 29.084 1020.61 29.1777 1021.49 29.3653C1022.39 29.534 1023.19 29.8341 1023.88 30.2654C1024.58 30.6967 1025.13 31.2781 1025.54 32.0095C1025.95 32.7409 1026.16 33.6692 1026.16 34.7944C1026.16 36.2384 1025.76 37.4479 1024.95 38.4231C1024.16 39.3983 1023.03 39.989 1021.55 40.1953L1026.84 49H1022.56L1017.95 40.561H1015.36V49H1011.81V29.084ZM1018.11 37.523C1018.62 37.523 1019.13 37.5042 1019.63 37.4667C1020.14 37.4104 1020.6 37.2979 1021.01 37.1291C1021.44 36.9416 1021.79 36.6697 1022.05 36.3134C1022.32 35.9383 1022.45 35.4226 1022.45 34.7662C1022.45 34.1849 1022.32 33.716 1022.08 33.3597C1021.84 33.0034 1021.52 32.7409 1021.12 32.5721C1020.73 32.3845 1020.29 32.2626 1019.8 32.2064C1019.33 32.1501 1018.87 32.122 1018.42 32.122H1015.36V37.523H1018.11ZM1033.12 32.2908H1027.01V29.084H1042.77V32.2908H1036.66V49H1033.12V32.2908ZM1045.19 29.084H1058.38V32.2908H1048.73V37.1854H1057.88V40.3922H1048.73V45.7932H1058.89V49H1045.19V29.084ZM1062.39 29.084H1070.24C1071.55 29.084 1072.81 29.2902 1074.03 29.7028C1075.25 30.0966 1076.33 30.7061 1077.27 31.5313C1078.21 32.3564 1078.96 33.3972 1079.52 34.6537C1080.08 35.8914 1080.36 37.3542 1080.36 39.042C1080.36 40.7485 1080.03 42.23 1079.38 43.4865C1078.74 44.7242 1077.91 45.7557 1076.87 46.5808C1075.86 47.3872 1074.73 47.9967 1073.47 48.4093C1072.23 48.8031 1071.01 49 1069.81 49H1062.39V29.084ZM1068.58 45.7932C1069.68 45.7932 1070.72 45.6713 1071.7 45.4275C1072.69 45.1649 1073.55 44.7711 1074.29 44.246C1075.02 43.7022 1075.59 43.0083 1076 42.1644C1076.43 41.3018 1076.65 40.2609 1076.65 39.042C1076.65 37.8418 1076.46 36.8103 1076.09 35.9477C1075.71 35.085 1075.19 34.3912 1074.51 33.8661C1073.85 33.3222 1073.07 32.9284 1072.15 32.6846C1071.25 32.4221 1070.25 32.2908 1069.17 32.2908H1065.93V45.7932H1068.58ZM1092.06 29.084H1096.75L1106.4 43.8803H1106.46V29.084H1110V49H1105.5L1095.66 33.7254H1095.6V49H1092.06V29.084ZM1113.38 39.1264C1113.38 37.5323 1113.64 36.0883 1114.16 34.7944C1114.69 33.4816 1115.41 32.3658 1116.33 31.4469C1117.27 30.528 1118.37 29.8247 1119.65 29.3371C1120.94 28.8308 1122.36 28.5776 1123.9 28.5776C1125.45 28.5589 1126.88 28.7933 1128.17 29.2809C1129.47 29.7497 1130.58 30.4436 1131.52 31.3625C1132.46 32.2814 1133.19 33.3879 1133.71 34.6818C1134.24 35.9758 1134.5 37.4198 1134.5 39.0138C1134.5 40.5704 1134.24 41.9863 1133.71 43.2615C1133.19 44.5367 1132.46 45.6338 1131.52 46.5527C1130.58 47.4716 1129.47 48.1936 1128.17 48.7187C1126.88 49.225 1125.45 49.4876 1123.9 49.5063C1122.36 49.5063 1120.94 49.2625 1119.65 48.775C1118.37 48.2686 1117.27 47.5654 1116.33 46.6652C1115.41 45.7463 1114.69 44.6492 1114.16 43.374C1113.64 42.0988 1113.38 40.6829 1113.38 39.1264ZM1117.09 38.9013C1117.09 39.9703 1117.25 40.9548 1117.57 41.855C1117.9 42.7551 1118.37 43.5334 1118.97 44.1898C1119.57 44.8461 1120.29 45.3619 1121.11 45.7369C1121.95 46.112 1122.89 46.2995 1123.92 46.2995C1124.96 46.2995 1125.89 46.112 1126.74 45.7369C1127.58 45.3619 1128.3 44.8461 1128.9 44.1898C1129.5 43.5334 1129.96 42.7551 1130.28 41.855C1130.62 40.9548 1130.79 39.9703 1130.79 38.9013C1130.79 37.9074 1130.62 36.9791 1130.28 36.1165C1129.96 35.2538 1129.5 34.5037 1128.9 33.8661C1128.3 33.2097 1127.58 32.7034 1126.74 32.347C1125.89 31.972 1124.96 31.7844 1123.92 31.7844C1122.89 31.7844 1121.95 31.972 1121.11 32.347C1120.29 32.7034 1119.57 33.2097 1118.97 33.8661C1118.37 34.5037 1117.9 35.2538 1117.57 36.1165C1117.25 36.9791 1117.09 37.9074 1117.09 38.9013ZM1135.65 29.084H1139.54L1143.28 43.4303H1143.33L1147.81 29.084H1151.29L1155.68 43.4303H1155.74L1159.65 29.084H1163.25L1157.46 49H1154.08L1149.47 33.8379H1149.41L1144.8 49H1141.53L1135.65 29.084Z" fill="white"/>
<circle cx="1194" cy="40" r="6" fill="#97CC04"/>
<path d="M1243.92 47.5372C1241.46 48.85 1238.71 49.5063 1235.67 49.5063C1234.14 49.5063 1232.72 49.2625 1231.43 48.775C1230.15 48.2686 1229.04 47.5654 1228.11 46.6652C1227.19 45.7463 1226.47 44.6492 1225.94 43.374C1225.42 42.0988 1225.15 40.6829 1225.15 39.1264C1225.15 37.5323 1225.42 36.0883 1225.94 34.7944C1226.47 33.4816 1227.19 32.3658 1228.11 31.4469C1229.04 30.528 1230.15 29.8247 1231.43 29.3371C1232.72 28.8308 1234.14 28.5776 1235.67 28.5776C1237.19 28.5776 1238.62 28.7652 1239.95 29.1402C1241.28 29.4965 1242.47 30.1435 1243.52 31.0812L1240.91 33.7254C1240.27 33.1065 1239.49 32.6283 1238.57 32.2908C1237.67 31.9532 1236.71 31.7844 1235.7 31.7844C1234.67 31.7844 1233.73 31.972 1232.89 32.347C1232.06 32.7034 1231.35 33.2097 1230.75 33.8661C1230.15 34.5037 1229.68 35.2538 1229.34 36.1165C1229.03 36.9791 1228.87 37.9074 1228.87 38.9013C1228.87 39.9703 1229.03 40.9548 1229.34 41.855C1229.68 42.7551 1230.15 43.5334 1230.75 44.1898C1231.35 44.8461 1232.06 45.3619 1232.89 45.7369C1233.73 46.112 1234.67 46.2995 1235.7 46.2995C1236.6 46.2995 1237.45 46.2151 1238.23 46.0463C1239.04 45.8776 1239.75 45.615 1240.37 45.2587V40.561H1236.29V37.3542H1243.92V47.5372ZM1248.12 29.084H1261.31V32.2908H1251.66V37.1854H1260.8V40.3922H1251.66V45.7932H1261.82V49H1248.12V29.084ZM1269.39 32.2908H1263.29V29.084H1279.04V32.2908H1272.94V49H1269.39V32.2908ZM1299.55 33.3597C1299.18 32.8159 1298.67 32.4221 1298.03 32.1783C1297.41 31.9157 1296.76 31.7844 1296.06 31.7844C1295.65 31.7844 1295.25 31.8313 1294.85 31.9251C1294.48 32.0189 1294.13 32.1689 1293.81 32.3752C1293.51 32.5815 1293.27 32.8534 1293.08 33.1909C1292.89 33.5097 1292.8 33.8942 1292.8 34.3443C1292.8 35.0194 1293.03 35.5351 1293.5 35.8914C1293.97 36.2477 1294.55 36.5572 1295.25 36.8197C1295.94 37.0823 1296.7 37.3354 1297.53 37.5792C1298.35 37.823 1299.11 38.1606 1299.8 38.5919C1300.5 39.0232 1301.08 39.5952 1301.55 40.3078C1302.02 41.0205 1302.25 41.9675 1302.25 43.149C1302.25 44.2179 1302.05 45.1556 1301.66 45.962C1301.27 46.7496 1300.73 47.406 1300.06 47.9311C1299.4 48.4562 1298.63 48.85 1297.75 49.1125C1296.87 49.3751 1295.94 49.5063 1294.97 49.5063C1293.73 49.5063 1292.54 49.3001 1291.39 48.8875C1290.25 48.4749 1289.26 47.781 1288.44 46.8059L1291.11 44.2179C1291.54 44.8743 1292.11 45.39 1292.8 45.7651C1293.51 46.1214 1294.26 46.2995 1295.05 46.2995C1295.46 46.2995 1295.87 46.2433 1296.29 46.1307C1296.7 46.0182 1297.08 45.8494 1297.41 45.6244C1297.75 45.3994 1298.02 45.1181 1298.23 44.7805C1298.43 44.4242 1298.54 44.021 1298.54 43.5709C1298.54 42.8395 1298.3 42.2769 1297.83 41.8831C1297.37 41.4893 1296.78 41.1611 1296.09 40.8986C1295.4 40.6173 1294.64 40.3547 1293.81 40.1109C1292.99 39.8671 1292.23 39.5389 1291.53 39.1264C1290.84 38.695 1290.26 38.1324 1289.79 37.4386C1289.32 36.7259 1289.09 35.7789 1289.09 34.5974C1289.09 33.566 1289.29 32.6752 1289.71 31.9251C1290.14 31.175 1290.69 30.5561 1291.36 30.0685C1292.06 29.5622 1292.85 29.1871 1293.73 28.9433C1294.61 28.6995 1295.51 28.5776 1296.43 28.5776C1297.48 28.5776 1298.49 28.737 1299.47 29.0558C1300.46 29.3746 1301.35 29.8997 1302.14 30.6311L1299.55 33.3597ZM1310.02 32.2908H1303.92V29.084H1319.67V32.2908H1313.57V49H1310.02V32.2908ZM1325.95 29.084H1329.02L1337.6 49H1333.55L1331.69 44.4429H1323.06L1321.26 49H1317.29L1325.95 29.084ZM1330.46 41.4049L1327.39 33.3035L1324.27 41.4049H1330.46ZM1339.81 29.084H1346.73C1347.69 29.084 1348.61 29.1777 1349.49 29.3653C1350.39 29.534 1351.19 29.8341 1351.88 30.2654C1352.58 30.6967 1353.13 31.2781 1353.54 32.0095C1353.95 32.7409 1354.16 33.6692 1354.16 34.7944C1354.16 36.2384 1353.76 37.4479 1352.95 38.4231C1352.16 39.3983 1351.03 39.989 1349.55 40.1953L1354.84 49H1350.56L1345.95 40.561H1343.36V49H1339.81V29.084ZM1346.11 37.523C1346.62 37.523 1347.13 37.5042 1347.63 37.4667C1348.14 37.4104 1348.6 37.2979 1349.01 37.1291C1349.44 36.9416 1349.79 36.6697 1350.05 36.3134C1350.32 35.9383 1350.45 35.4226 1350.45 34.7662C1350.45 34.1849 1350.32 33.716 1350.08 33.3597C1349.84 33.0034 1349.52 32.7409 1349.12 32.5721C1348.73 32.3845 1348.29 32.2626 1347.8 32.2064C1347.33 32.1501 1346.87 32.122 1346.42 32.122H1343.36V37.523H1346.11ZM1361.12 32.2908H1355.01V29.084H1370.77V32.2908H1364.66V49H1361.12V32.2908ZM1373.19 29.084H1386.38V32.2908H1376.73V37.1854H1385.88V40.3922H1376.73V45.7932H1386.89V49H1373.19V29.084ZM1390.39 29.084H1398.24C1399.55 29.084 1400.81 29.2902 1402.03 29.7028C1403.25 30.0966 1404.33 30.7061 1405.27 31.5313C1406.21 32.3564 1406.96 33.3972 1407.52 34.6537C1408.08 35.8914 1408.36 37.3542 1408.36 39.042C1408.36 40.7485 1408.03 42.23 1407.38 43.4865C1406.74 44.7242 1405.91 45.7557 1404.87 46.5808C1403.86 47.3872 1402.73 47.9967 1401.47 48.4093C1400.23 48.8031 1399.01 49 1397.81 49H1390.39V29.084ZM1396.58 45.7932C1397.68 45.7932 1398.72 45.6713 1399.7 45.4275C1400.69 45.1649 1401.55 44.7711 1402.29 44.246C1403.02 43.7022 1403.59 43.0083 1404 42.1644C1404.43 41.3018 1404.65 40.2609 1404.65 39.042C1404.65 37.8418 1404.46 36.8103 1404.09 35.9477C1403.71 35.085 1403.19 34.3912 1402.51 33.8661C1401.85 33.3222 1401.07 32.9284 1400.15 32.6846C1399.25 32.4221 1398.25 32.2908 1397.17 32.2908H1393.93V45.7932H1396.58ZM1420.06 29.084H1424.75L1434.4 43.8803H1434.46V29.084H1438V49H1433.5L1423.66 33.7254H1423.6V49H1420.06V29.084ZM1441.38 39.1264C1441.38 37.5323 1441.64 36.0883 1442.16 34.7944C1442.69 33.4816 1443.41 32.3658 1444.33 31.4469C1445.27 30.528 1446.37 29.8247 1447.65 29.3371C1448.94 28.8308 1450.36 28.5776 1451.9 28.5776C1453.45 28.5589 1454.88 28.7933 1456.17 29.2809C1457.47 29.7497 1458.58 30.4436 1459.52 31.3625C1460.46 32.2814 1461.19 33.3879 1461.71 34.6818C1462.24 35.9758 1462.5 37.4198 1462.5 39.0138C1462.5 40.5704 1462.24 41.9863 1461.71 43.2615C1461.19 44.5367 1460.46 45.6338 1459.52 46.5527C1458.58 47.4716 1457.47 48.1936 1456.17 48.7187C1454.88 49.225 1453.45 49.4876 1451.9 49.5063C1450.36 49.5063 1448.94 49.2625 1447.65 48.775C1446.37 48.2686 1445.27 47.5654 1444.33 46.6652C1443.41 45.7463 1442.69 44.6492 1442.16 43.374C1441.64 42.0988 1441.38 40.6829 1441.38 39.1264ZM1445.09 38.9013C1445.09 39.9703 1445.25 40.9548 1445.57 41.855C1445.9 42.7551 1446.37 43.5334 1446.97 44.1898C1447.57 44.8461 1448.29 45.3619 1449.11 45.7369C1449.95 46.112 1450.89 46.2995 1451.92 46.2995C1452.96 46.2995 1453.89 46.112 1454.74 45.7369C1455.58 45.3619 1456.3 44.8461 1456.9 44.1898C1457.5 43.5334 1457.96 42.7551 1458.28 41.855C1458.62 40.9548 1458.79 39.9703 1458.79 38.9013C1458.79 37.9074 1458.62 36.9791 1458.28 36.1165C1457.96 35.2538 1457.5 34.5037 1456.9 33.8661C1456.3 33.2097 1455.58 32.7034 1454.74 32.347C1453.89 31.972 1452.96 31.7844 1451.92 31.7844C1450.89 31.7844 1449.95 31.972 1449.11 32.347C1448.29 32.7034 1447.57 33.2097 1446.97 33.8661C1446.37 34.5037 1445.9 35.2538 1445.57 36.1165C1445.25 36.9791 1445.09 37.9074 1445.09 38.9013ZM1463.65 29.084H1467.54L1471.28 43.4303H1471.33L1475.81 29.084H1479.29L1483.68 43.4303H1483.74L1487.65 29.084H1491.25L1485.46 49H1482.08L1477.47 33.8379H1477.41L1472.8 49H1469.53L1463.65 29.084Z" fill="white"/>
</g>
<defs>
<clipPath id="clip0_1_625">
<rect width="1439" height="80" fill="white"/>
</clipPath>
</defs>
</svg>
