<svg width="24" height="24" viewBox="0 0 24 24" fill="none" xmlns="http://www.w3.org/2000/svg">
<rect width="24" height="24" rx="4" fill="#688D00"/>
<path fill-rule="evenodd" clip-rule="evenodd" d="M12 4.125C10.5592 4.125 9.138 4.20825 7.74 4.37025C6.61725 4.50075 5.8125 5.46525 5.8125 6.56775V19.3125C5.81252 19.4044 5.83508 19.495 5.8782 19.5762C5.92132 19.6574 5.98369 19.7268 6.05985 19.7783C6.13601 19.8298 6.22364 19.8619 6.31506 19.8717C6.40648 19.8815 6.4989 19.8687 6.58425 19.8345L9.1875 18.7935L11.7915 19.8345C11.9254 19.8879 12.0746 19.8879 12.2085 19.8345L14.8125 18.7935L17.4158 19.8345C17.5011 19.8687 17.5935 19.8815 17.6849 19.8717C17.7764 19.8619 17.864 19.8298 17.9401 19.7783C18.0163 19.7268 18.0787 19.6574 18.1218 19.5762C18.1649 19.495 18.1875 19.4044 18.1875 19.3125V6.56775C18.1875 5.46525 17.3828 4.50075 16.26 4.37025C14.8459 4.20649 13.4235 4.1246 12 4.125ZM14.6475 9.585C14.7469 9.47837 14.801 9.33734 14.7984 9.19161C14.7958 9.04588 14.7368 8.90684 14.6337 8.80378C14.5307 8.70073 14.3916 8.64169 14.2459 8.63912C14.1002 8.63655 13.9591 8.69064 13.8525 8.79L9.3525 13.29C9.29724 13.3415 9.25291 13.4036 9.22216 13.4726C9.19142 13.5416 9.17489 13.6161 9.17356 13.6916C9.17222 13.7671 9.18612 13.8422 9.21441 13.9122C9.2427 13.9822 9.28481 14.0459 9.33822 14.0993C9.39164 14.1527 9.45526 14.1948 9.5253 14.2231C9.59534 14.2514 9.67036 14.2653 9.74589 14.2639C9.82142 14.2626 9.8959 14.2461 9.9649 14.2153C10.0339 14.1846 10.096 14.1403 10.1475 14.085L14.6475 9.585ZM9.46875 9.75C9.46875 9.52623 9.55764 9.31161 9.71588 9.15338C9.87411 8.99515 10.0887 8.90625 10.3125 8.90625C10.5363 8.90625 10.7509 8.99515 10.9091 9.15338C11.0674 9.31161 11.1562 9.52623 11.1562 9.75C11.1562 9.97378 11.0674 10.1884 10.9091 10.3466C10.7509 10.5049 10.5363 10.5938 10.3125 10.5938C10.0887 10.5938 9.87411 10.5049 9.71588 10.3466C9.55764 10.1884 9.46875 9.97378 9.46875 9.75ZM13.6875 12.2813C13.4637 12.2813 13.2491 12.3701 13.0909 12.5284C12.9326 12.6866 12.8438 12.9012 12.8438 13.125C12.8438 13.3488 12.9326 13.5634 13.0909 13.7216C13.2491 13.8799 13.4637 13.9688 13.6875 13.9688C13.9113 13.9688 14.1259 13.8799 14.2841 13.7216C14.4424 13.5634 14.5312 13.3488 14.5312 13.125C14.5312 12.9012 14.4424 12.6866 14.2841 12.5284C14.1259 12.3701 13.9113 12.2813 13.6875 12.2813Z" fill="white"/>
</svg>
