<svg width="14" height="13" viewBox="0 0 14 13" fill="none" xmlns="http://www.w3.org/2000/svg">
<path fill-rule="evenodd" clip-rule="evenodd" d="M0.5 6.5C0.5 2.91 3.41 0 7 0C10.59 0 13.5 2.91 13.5 6.5C13.5 10.09 10.59 13 7 13C3.41 13 0.5 10.09 0.5 6.5ZM9.84933 5.84467C9.96612 5.90967 10.0634 6.00469 10.1311 6.11991C10.1989 6.23512 10.2346 6.36635 10.2346 6.5C10.2346 6.63365 10.1989 6.76488 10.1311 6.88009C10.0634 6.99531 9.96612 7.09033 9.84933 7.15533L6.114 9.23067C5.99986 9.29403 5.87116 9.32649 5.74062 9.32486C5.61009 9.32323 5.48224 9.28755 5.36972 9.22136C5.2572 9.15517 5.1639 9.06075 5.09906 8.94745C5.03422 8.83415 5.00007 8.70588 5 8.57533V4.42467C5 3.85333 5.614 3.49133 6.114 3.76933L9.84933 5.84467Z" fill="#81AF00"/>
</svg>
