<svg width="40" height="40" viewBox="0 0 40 40" fill="none" xmlns="http://www.w3.org/2000/svg">
<path d="M30.6661 2.89844H14.5067C10.9849 2.89844 8.11536 5.768 8.11536 9.28974V18.71V18.9999C8.11536 22.5361 10.9849 25.3912 14.5067 25.3912H20.0719C20.869 25.3912 21.5212 26.0434 21.5212 26.8405V28.2463C21.5212 29.0434 20.869 29.6955 20.0719 29.6955H16.5646C15.9704 29.6955 15.4777 30.1883 15.4777 30.7825C15.4777 31.3767 15.9559 31.8839 16.5646 31.8839H28.6661C29.2603 31.8839 29.753 31.3912 29.753 30.797C29.753 30.2028 29.2603 29.71 28.6661 29.71H25.1588C24.3617 29.71 23.7096 29.0579 23.7096 28.2608V26.855C23.7096 26.0579 24.3617 25.4057 25.1588 25.4057H30.6806C34.2168 25.4057 37.0719 22.5361 37.0719 19.0144V18.7245V9.30423C37.0574 5.768 34.1878 2.89844 30.6661 2.89844Z" fill="#DFE667" fill-opacity="0.1"/>
<path d="M31.8841 20.623V23.7389C31.8841 28.8983 30.5942 30.1737 25.4493 30.1737H9.33334C4.18841 30.1737 2.89856 28.8838 2.89856 23.7389V14.5505C2.89856 9.40558 4.18841 8.11572 9.33334 8.11572H25.4348C30.5942 8.11572 31.8841 9.40558 31.8841 14.5505" stroke="#DFE667" stroke-width="1.5" stroke-linecap="round" stroke-linejoin="round"/>
<path d="M17.3914 30.1738V37.1014" stroke="#DFE667" stroke-width="1.5" stroke-linecap="round" stroke-linejoin="round"/>
<path d="M2.89856 24.0579H31.8841" stroke="#DFE667" stroke-width="1.5" stroke-linecap="round" stroke-linejoin="round"/>
<path d="M10.8695 37.1013H23.913" stroke="#DFE667" stroke-width="1.5" stroke-linecap="round" stroke-linejoin="round"/>
</svg>
