<svg width="42" height="42" viewBox="0 0 42 42" fill="none" xmlns="http://www.w3.org/2000/svg">
<path d="M18.1391 4.46969C19.8261 3.49578 21.913 3.49578 23.6174 4.46969L33.9478 10.4349C35.6348 11.4088 36.6782 13.2176 36.6782 15.1828V27.0784C36.6782 29.0262 35.6348 30.835 33.9478 31.8263L23.6174 37.7915C21.9304 38.7654 19.8435 38.7654 18.1391 37.7915L7.80868 31.8263C6.12172 30.8524 5.07825 29.0436 5.07825 27.0784V15.1828C5.07825 13.235 6.12172 11.4262 7.80868 10.4349L11.113 8.5219" stroke="#688D00" stroke-width="1.5" stroke-linecap="round" stroke-linejoin="round"/>
<path d="M20.8696 19.3914C23.1075 19.3914 24.9217 17.5772 24.9217 15.3392C24.9217 13.1013 23.1075 11.2871 20.8696 11.2871C18.6316 11.2871 16.8174 13.1013 16.8174 15.3392C16.8174 17.5772 18.6316 19.3914 20.8696 19.3914Z" stroke="#688D00" stroke-width="1.5" stroke-linecap="round" stroke-linejoin="round"/>
<path d="M27.8261 29.2349C27.8261 26.1045 24.7131 23.5654 20.8696 23.5654C17.0261 23.5654 13.9131 26.1045 13.9131 29.2349" stroke="#688D00" stroke-width="1.5" stroke-linecap="round" stroke-linejoin="round"/>
</svg>
