<svg width="16" height="16" viewBox="0 0 16 16" fill="none" xmlns="http://www.w3.org/2000/svg">
<path d="M12.6667 0H3.33333C1.49267 0 0 1.49267 0 3.33333V12.6667C0 14.5073 1.49267 16 3.33333 16H12.6667C14.508 16 16 14.5073 16 12.6667V3.33333C16 1.49267 14.508 0 12.6667 0ZM12.574 6.158C12.7133 9.236 10.418 12.668 6.354 12.668C5.118 12.668 3.968 12.306 2.99933 11.6847C4.16067 11.8213 5.31933 11.4993 6.23933 10.7787C5.28133 10.7607 4.47333 10.128 4.19533 9.25867C4.53867 9.324 4.876 9.30467 5.18333 9.22133C4.13067 9.01 3.40467 8.062 3.428 7.048C3.72267 7.212 4.06067 7.31067 4.41867 7.322C3.44467 6.67067 3.16867 5.384 3.74133 4.4C4.82067 5.724 6.43333 6.59533 8.252 6.68667C7.93267 5.318 8.972 4 10.3847 4C11.0133 4 11.5827 4.26533 11.9813 4.69133C12.48 4.59333 12.9487 4.41133 13.372 4.16067C13.208 4.672 12.8613 5.10067 12.41 5.37133C12.8527 5.318 13.2747 5.20067 13.6667 5.02667C13.374 5.464 13.0027 5.84933 12.574 6.158Z" fill="white"/>
</svg>
