<svg width="16" height="16" viewBox="0 0 16 16" fill="none" xmlns="http://www.w3.org/2000/svg">
<rect width="16" height="16" rx="4" fill="#2B3A00" fill-opacity="0.1"/>
<path d="M5.82503 12.4549C5.81003 12.4549 5.79003 12.4649 5.77503 12.4649C4.80503 11.9849 4.01503 11.1899 3.53003 10.2199C3.53003 10.2049 3.54003 10.1849 3.54003 10.1699C4.15003 10.3499 4.78003 10.4849 5.40503 10.5899C5.51503 11.2199 5.64503 11.8449 5.82503 12.4549Z" fill="#1D2700"/>
<path d="M12.47 10.2249C11.975 11.2199 11.15 12.0249 10.145 12.5099C10.335 11.8749 10.495 11.2349 10.6 10.5899C11.23 10.4849 11.85 10.3499 12.46 10.1699C12.455 10.1899 12.47 10.2099 12.47 10.2249Z" fill="#1D2700"/>
<path d="M12.51 5.85499C11.88 5.66499 11.245 5.50999 10.6 5.39999C10.495 4.75499 10.34 4.11499 10.145 3.48999C11.18 3.98499 12.015 4.81999 12.51 5.85499Z" fill="#1D2700"/>
<path d="M5.82499 3.54503C5.64499 4.15503 5.51499 4.77503 5.40999 5.40503C4.76499 5.50503 4.12499 5.66503 3.48999 5.85503C3.97499 4.85003 4.77999 4.02503 5.77499 3.53003C5.78999 3.53003 5.80999 3.54503 5.82499 3.54503Z" fill="#1D2700"/>
<path d="M9.745 5.295C8.585 5.165 7.415 5.165 6.255 5.295C6.38 4.61 6.54 3.925 6.765 3.265C6.775 3.225 6.77 3.195 6.775 3.155C7.17 3.06 7.575 3 8 3C8.42 3 8.83 3.06 9.22 3.155C9.225 3.195 9.225 3.225 9.235 3.265C9.46 3.93 9.62 4.61 9.745 5.295Z" fill="#1D2700"/>
<path d="M5.295 9.74488C4.605 9.61988 3.925 9.45988 3.265 9.23488C3.225 9.22488 3.195 9.22988 3.155 9.22488C3.06 8.82988 3 8.42488 3 7.99988C3 7.57988 3.06 7.16988 3.155 6.77988C3.195 6.77488 3.225 6.77488 3.265 6.76488C3.93 6.54488 4.605 6.37988 5.295 6.25488C5.17 7.41488 5.17 8.58488 5.295 9.74488Z" fill="#1D2700"/>
<path d="M13 7.99988C13 8.42488 12.94 8.82988 12.845 9.22488C12.805 9.22988 12.775 9.22488 12.735 9.23488C12.07 9.45488 11.39 9.61988 10.705 9.74488C10.835 8.58488 10.835 7.41488 10.705 6.25488C11.39 6.37988 12.075 6.53988 12.735 6.76488C12.775 6.77488 12.805 6.77988 12.845 6.77988C12.94 7.17488 13 7.57988 13 7.99988Z" fill="#1D2700"/>
<path d="M9.745 10.7051C9.62 11.3951 9.46 12.0751 9.235 12.7351C9.225 12.7751 9.225 12.8051 9.22 12.8451C8.83 12.9401 8.42 13.0001 8 13.0001C7.575 13.0001 7.17 12.9401 6.775 12.8451C6.77 12.8051 6.775 12.7751 6.765 12.7351C6.545 12.0701 6.38 11.3951 6.255 10.7051C6.835 10.7701 7.415 10.8151 8 10.8151C8.585 10.8151 9.17 10.7701 9.745 10.7051Z" fill="#1D2700"/>
<path d="M9.88167 9.88167C8.63112 10.0394 7.36888 10.0394 6.11833 9.88167C5.96056 8.63112 5.96056 7.36888 6.11833 6.11833C7.36888 5.96056 8.63112 5.96056 9.88167 6.11833C10.0394 7.36888 10.0394 8.63112 9.88167 9.88167Z" fill="#1D2700"/>
</svg>
